<?xml version="1.0" standalone="no"?>
<!DOCTYPE svg PUBLIC "-//W3C//DTD SVG 20010904//EN"
 "http://www.w3.org/TR/2001/REC-SVG-20010904/DTD/svg10.dtd">
<svg version="1.0" xmlns="http://www.w3.org/2000/svg"
 width="700.000000pt" height="700.000000pt" viewBox="0 0 700.000000 700.000000"
 preserveAspectRatio="xMidYMid meet">
<metadata>
Created by potrace 1.14, written by Peter Selinger 2001-2017
</metadata>
<g transform="translate(0.000000,700.000000) scale(0.100000,-0.100000)"
fill="#000000" stroke="none">
<path d="M3663 6920 c-18 -4 -44 -15 -57 -24 -28 -18 -78 -77 -83 -98 -21 -94
-23 -142 -7 -228 8 -47 52 -186 74 -235 196 -432 317 -701 355 -790 25 -60 53
-123 60 -140 7 -16 30 -70 50 -120 21 -49 43 -103 50 -120 32 -76 86 -228 109
-305 44 -149 46 -134 -26 -160 -75 -26 -142 -61 -218 -110 -85 -56 -87 -57
-55 -14 37 50 76 86 143 130 28 20 54 40 57 44 8 13 -17 60 -32 60 -8 0 -55
-21 -105 -47 -78 -41 -107 -64 -194 -153 -56 -58 -120 -127 -143 -153 l-40
-48 -7 28 c-52 238 -158 547 -267 775 -283 591 -694 988 -1147 1106 -144 38
-184 44 -290 47 -381 7 -552 -182 -391 -432 69 -107 154 -185 517 -474 196
-156 361 -289 368 -294 6 -6 64 -54 128 -108 64 -53 122 -102 130 -109 7 -7
43 -37 78 -67 142 -119 376 -370 494 -531 54 -74 61 -58 -59 -136 -296 -193
-480 -471 -530 -798 -9 -65 -7 -219 5 -287 18 -106 39 -169 90 -274 119 -243
328 -441 603 -570 205 -96 388 -139 642 -151 72 -4 132 -9 135 -12 6 -6 -281
6 -330 13 -19 3 -60 10 -89 16 -51 8 -58 7 -94 -17 -21 -14 -59 -27 -85 -30
-59 -7 -98 -18 -190 -55 -70 -29 -245 -117 -310 -156 l-31 -19 26 -30 c53 -61
83 -117 83 -158 l0 -40 -32 54 c-74 122 -170 134 -174 21 -1 -28 4 -70 11 -94
14 -44 54 -150 60 -155 2 -2 40 14 84 35 85 40 86 42 64 98 -10 26 20 14 32
-13 13 -29 24 -28 97 9 43 22 59 26 55 15 -9 -22 -21 -153 -20 -208 l1 -48
-31 16 c-41 22 -136 29 -180 15 -134 -45 -199 -255 -134 -437 59 -164 186
-343 282 -399 110 -64 200 -25 255 109 l22 54 42 -42 c169 -169 409 -255 725
-260 l83 -1 24 -47 c48 -94 123 -115 229 -63 56 27 169 130 200 182 10 16 51
47 96 72 122 68 248 192 303 299 14 28 22 32 54 32 116 0 231 82 267 189 21
65 17 159 -10 216 -28 57 -97 121 -156 143 l-51 19 -29 114 c-80 320 -200 530
-373 654 -89 63 -111 66 -200 21 -80 -39 -211 -77 -351 -100 -113 -19 -215
-28 -215 -18 0 5 17 9 38 10 283 17 556 110 781 265 41 29 111 88 156 133 245
243 353 573 290 884 -3 14 -7 37 -10 52 -8 44 -65 200 -93 253 -25 49 -101
175 -112 185 -3 3 -17 21 -32 41 -75 101 -255 254 -379 322 -63 35 -66 41 -49
112 27 112 56 262 71 365 5 41 12 86 14 99 25 150 25 667 0 761 -2 8 -6 33
-10 55 -5 35 -11 75 -20 125 -21 114 -72 271 -133 410 -91 207 -179 327 -355
487 -196 178 -441 272 -604 233z m612 -2292 c12 -53 35 -170 35 -180 0 -6 -19
-7 -52 -3 -90 11 -90 11 -72 47 l16 30 -34 -7 c-18 -3 -61 -13 -95 -22 -82
-19 -95 -14 -54 23 27 24 221 130 243 133 4 1 10 -9 13 -21z"/>
<path d="M2722 2561 c-49 -24 -64 -43 -43 -55 16 -11 51 -86 57 -126 5 -32 4
-40 -9 -40 -36 0 -83 83 -86 153 -1 9 -6 17 -11 17 -17 0 -160 -72 -156 -79 2
-3 24 -40 49 -82 51 -85 62 -122 71 -224 18 -208 49 -255 175 -271 87 -10 240
53 272 113 7 13 16 23 20 23 5 0 -49 116 -120 258 -70 141 -136 275 -147 298
l-20 41 -52 -26z"/>
<path d="M2262 2338 c-16 -8 -21 -17 -16 -30 3 -11 59 -126 124 -256 65 -131
125 -255 134 -276 13 -31 19 -36 30 -27 23 19 13 91 -19 147 -15 27 -31 51
-34 54 -4 3 -32 39 -63 80 -61 81 -76 112 -85 175 -3 22 -9 48 -14 57 -5 9 -8
21 -7 25 2 13 -14 63 -21 62 -3 0 -16 -5 -29 -11z"/>
<path d="M2590 1612 c0 -5 27 -63 60 -130 62 -125 80 -143 110 -107 10 12 9
25 -9 68 -29 70 -79 141 -112 161 -30 17 -49 21 -49 8z"/>
</g>
</svg>
