<svg width="241" height="27" viewBox="0 0 241 27" fill="none" xmlns="http://www.w3.org/2000/svg">
<path d="M33.981 0H2.35411C1.73999 0 1.12588 0.259295 0.71647 0.674168C0.255881 1.08904 0 1.71135 0 2.33366V24.1664C0 24.7886 0.255881 25.4109 0.71647 25.8258C1.17705 26.2407 1.73999 26.5 2.40528 26.5H34.0322C34.6464 26.5 35.2604 26.2407 35.721 25.8258C36.1816 25.4109 36.4375 24.7886 36.4375 24.1664V2.33366C36.4375 1.71135 36.1816 1.08904 35.721 0.674168C35.2093 0.259295 34.5952 0 33.981 0Z" fill="#1A1876"/>
<path d="M13.7495 16.8177H15.7864L17.0594 9.27539H15.0226L13.7495 16.8177Z" fill="white"/>
<path d="M21.2352 12.3334C20.5223 11.9767 20.064 11.7729 20.064 11.4161C20.064 11.1104 20.4204 10.7536 21.2352 10.7536C21.8463 10.7536 22.4064 10.8556 22.9666 11.1104L23.2212 9.47957C22.6101 9.27572 21.999 9.17383 21.3879 9.17383C19.3511 9.17383 17.9253 10.1931 17.9253 11.6709C17.9253 12.7411 18.9437 13.3527 19.7075 13.7094C20.5223 14.0661 20.7769 14.3209 20.7769 14.6267C20.7769 15.1363 20.1149 15.3402 19.5547 15.3402C18.7909 15.3402 18.0271 15.1873 17.3651 14.8306L17.0596 16.5123C17.7725 16.7671 18.5872 16.92 19.3511 16.92C21.4898 16.92 22.9156 15.9007 22.9156 14.3209C22.9666 13.5056 22.4064 12.8431 21.2352 12.3334Z" fill="white"/>
<path d="M28.5158 9.32574H26.9372C26.7335 9.2748 26.4789 9.32574 26.2752 9.47865C26.0715 9.58054 25.9188 9.78439 25.8678 9.98824L22.8125 16.868H24.9513C24.9513 16.868 25.3077 15.9507 25.3586 15.7469H28.0066C28.0575 16.0017 28.2612 16.868 28.2612 16.868H30.1453L28.5158 9.32574ZM25.9696 14.1671C26.0715 13.9632 26.8863 11.7719 27.0391 11.3642C27.2936 12.6382 27.0391 11.4151 27.6501 14.1671H25.9696Z" fill="white"/>
<path d="M12.0161 9.32634L10.0301 14.4735L9.82648 13.4542L9.11357 9.98884C9.06262 9.78499 8.96079 9.63215 8.75708 9.47924C8.6043 9.37728 8.40065 9.32634 8.19693 9.32634H4.83608L4.78516 9.47924C5.54899 9.63215 6.2619 9.93789 6.92387 10.2946L8.80802 16.8177H10.9977L14.2057 9.27539L12.0161 9.32634Z" fill="white"/>
<path d="M75.4695 0H43.8428C43.2287 0 42.6146 0.259295 42.154 0.674168C41.6934 1.08904 41.4375 1.71135 41.4375 2.33366V24.1664C41.4375 24.7886 41.6934 25.4109 42.154 25.8258C42.6146 26.2407 43.1775 26.5 43.8428 26.5H75.4695C76.0833 26.5 76.6979 26.2407 77.1586 25.8258C77.6187 25.4109 77.875 24.7886 77.875 24.1664V2.33366C77.875 1.71135 77.6187 1.08904 77.1586 0.674168C76.6466 0.259295 76.0833 0 75.4695 0Z" fill="#FFE9C9"/>
<path d="M53.0487 20.8932V19.823C53.0487 19.7211 53.0487 19.6701 52.9977 19.5682C52.9468 19.4663 52.9468 19.4153 52.8959 19.3643C52.8449 19.3134 52.794 19.2624 52.6922 19.2115C52.6413 19.1605 52.5394 19.1605 52.4376 19.1605H52.3358C52.2339 19.1605 52.0812 19.1605 51.9793 19.2115C51.8774 19.2624 51.7756 19.3643 51.7247 19.4153C51.6737 19.3134 51.5719 19.2624 51.4701 19.1605C51.3682 19.1095 51.2663 19.0586 51.1645 19.1095C51.0627 19.1095 50.9608 19.1095 50.859 19.1605C50.7571 19.2115 50.7062 19.2624 50.6553 19.3643V19.1605H50.2988V20.8932H50.6553V19.9249C50.6553 19.874 50.6553 19.823 50.6553 19.772C50.6553 19.7211 50.7062 19.6701 50.7062 19.6192C50.7571 19.5682 50.7571 19.5682 50.8081 19.5172C50.859 19.4663 50.9099 19.4663 50.9608 19.4663H51.0117C51.2663 19.4663 51.3682 19.6192 51.3682 19.9249V20.8932H51.7247V19.9249C51.7247 19.874 51.7247 19.823 51.7247 19.772C51.7247 19.7211 51.7756 19.6701 51.7756 19.6192C51.8265 19.5682 51.8265 19.5682 51.8774 19.5172C51.9284 19.4663 51.9793 19.4663 52.0302 19.4663H52.0811C52.3358 19.4663 52.4376 19.6192 52.4376 19.9249V20.8932H53.0487ZM58.5992 19.1605H57.9881V18.6509H57.6316V19.1605H57.2752V19.5172H57.6316V20.2817C57.6316 20.6893 57.7844 20.8932 58.2427 20.8932C58.3955 20.8932 58.5482 20.8422 58.701 20.7913L58.5992 20.4855C58.4973 20.5365 58.3955 20.5874 58.2936 20.5874C58.1408 20.5874 58.039 20.4855 58.039 20.2817V19.5172H58.6501V19.1605H58.5992ZM61.7564 19.1605C61.6545 19.1605 61.6036 19.1605 61.5017 19.2115C61.3999 19.2624 61.349 19.3134 61.298 19.4153V19.2115H60.9416V20.8932H61.298V19.9249C61.298 19.6192 61.3999 19.4663 61.6545 19.4663C61.7564 19.4663 61.8072 19.4663 61.9091 19.5172L62.011 19.1605C61.9091 19.1605 61.8072 19.1605 61.7564 19.1605ZM56.9697 19.3134C56.766 19.2115 56.5114 19.1095 56.2568 19.1605C55.8494 19.1605 55.5438 19.3643 55.5438 19.7211C55.5438 20.0268 55.7475 20.1797 56.1549 20.2307H56.3076C56.5114 20.2817 56.6132 20.3326 56.6132 20.3836C56.6132 20.4855 56.4604 20.5874 56.2058 20.5874C56.0022 20.5874 55.7984 20.5365 55.6457 20.4345L55.4929 20.7403C55.6966 20.8932 55.9512 20.9442 56.2058 20.9442C56.715 20.9442 56.9697 20.6893 56.9697 20.3836C56.9697 20.0778 56.7151 19.9249 56.3586 19.874H56.2058C56.053 19.874 55.9003 19.823 55.9003 19.7211C55.9003 19.6192 56.0022 19.5172 56.2058 19.5172C56.4095 19.5172 56.5623 19.5682 56.715 19.6701L56.9697 19.3134ZM66.8995 19.1605C66.7977 19.1605 66.6958 19.1605 66.6449 19.2115C66.5431 19.2624 66.4921 19.3134 66.4412 19.4153V19.2115H66.0338V20.8932H66.3903V19.9249C66.3903 19.6192 66.4921 19.4663 66.7467 19.4663C66.8485 19.4663 66.8995 19.4663 67.0013 19.5172L67.1033 19.1605C67.0523 19.1605 66.9504 19.1095 66.8995 19.1605ZM62.1128 20.0268C62.1128 20.2307 62.1637 20.4855 62.3165 20.6384C62.4693 20.7913 62.6729 20.8932 62.9275 20.8932H63.0294C63.1313 20.8932 63.2331 20.8932 63.3349 20.8422C63.4368 20.7913 63.5386 20.7403 63.6404 20.6893L63.4877 20.3836C63.3349 20.4855 63.1821 20.5365 63.0294 20.5365C62.9785 20.5365 62.8767 20.5365 62.8257 20.4855C62.7748 20.4345 62.7239 20.3836 62.6729 20.3326C62.622 20.2817 62.5711 20.2307 62.5711 20.1288C62.5711 20.0778 62.5202 19.9759 62.5711 19.9249C62.5711 19.772 62.622 19.6701 62.7239 19.5682C62.8257 19.4663 62.9275 19.4153 63.0803 19.4153C63.2331 19.4153 63.3859 19.4663 63.5386 19.5682L63.6914 19.2624C63.5386 19.1605 63.3859 19.1095 63.2331 19.0586C63.0803 19.0586 62.9275 19.0586 62.7748 19.1095C62.622 19.1605 62.4693 19.2624 62.3674 19.4153C62.2656 19.5682 62.2146 19.7211 62.1637 19.874C62.1128 19.9759 62.1128 20.0268 62.1128 20.0268ZM65.5755 20.0268V19.1605H65.2191V19.3643C65.1681 19.2624 65.0663 19.2115 64.9645 19.1605C64.8626 19.1095 64.7607 19.1095 64.6589 19.1095C64.4043 19.1095 64.2006 19.2115 64.0478 19.3643C63.895 19.5172 63.7932 19.772 63.7932 19.9759C63.7932 20.2307 63.895 20.4345 64.0478 20.5874C64.2006 20.7403 64.4552 20.8422 64.6589 20.8422C64.7607 20.8422 64.8626 20.8422 64.9645 20.7913C65.0663 20.7403 65.1172 20.6893 65.2191 20.5874V20.8932H65.5755V20.0268ZM64.2006 20.0268C64.2006 19.9759 64.2006 19.874 64.2515 19.823C64.3025 19.772 64.3024 19.7211 64.3534 19.6701C64.4043 19.6192 64.4552 19.5682 64.5061 19.5682C64.5571 19.5682 64.6589 19.5172 64.7099 19.5172C64.7607 19.5172 64.8626 19.5172 64.9135 19.5682C64.9645 19.6192 65.0153 19.6192 65.0663 19.6701C65.1172 19.7211 65.1681 19.772 65.1681 19.823C65.1681 19.874 65.2191 19.9759 65.2191 20.0268C65.2191 20.1797 65.1681 20.2817 65.0663 20.3836C64.9645 20.4855 64.8626 20.5365 64.7099 20.5365C64.6589 20.5365 64.5571 20.5365 64.5061 20.4855C64.4552 20.4855 64.4043 20.4345 64.3534 20.3836C64.3024 20.3326 64.2515 20.2817 64.2515 20.2307C64.2006 20.1797 64.2006 20.0778 64.2006 20.0268ZM59.7194 19.1605C59.6176 19.1605 59.4648 19.1605 59.363 19.2115C59.2611 19.2624 59.1593 19.3134 59.0575 19.4153C58.9556 19.5172 58.9047 19.6192 58.8538 19.7211C58.8029 19.823 58.8029 19.9249 58.8029 20.0778C58.8029 20.1797 58.8029 20.3326 58.8538 20.4345C58.9047 20.5365 58.9556 20.6384 59.0575 20.7403C59.1593 20.8422 59.2611 20.8932 59.363 20.9442C59.4648 20.9951 59.5667 20.9951 59.7194 20.9951C59.974 20.9951 60.2287 20.9442 60.4324 20.7403L60.2796 20.4855C60.1268 20.5874 59.974 20.6384 59.7704 20.6384C59.6685 20.6384 59.5158 20.5874 59.4139 20.5365C59.3121 20.4855 59.2611 20.3326 59.2611 20.2307H60.5342V20.0778C60.5342 19.9759 60.5342 19.823 60.4833 19.7211C60.4324 19.6192 60.3814 19.5172 60.3305 19.4153C60.2287 19.3134 60.1778 19.2624 60.0759 19.2115C59.974 19.1605 59.8722 19.1605 59.7194 19.1605ZM59.7194 19.4663C59.8213 19.4663 59.9232 19.5172 60.025 19.5682C60.1268 19.6701 60.1268 19.772 60.1778 19.874H59.3121C59.3121 19.772 59.363 19.6701 59.4648 19.5682C59.5158 19.5172 59.6176 19.4663 59.7194 19.4663ZM69.0385 20.0268V18.498H68.6821V19.3643C68.6311 19.2624 68.529 19.2115 68.427 19.1605C68.325 19.1095 68.2236 19.1095 68.1216 19.1095C67.8672 19.1095 67.6631 19.2115 67.5108 19.3643C67.3577 19.5172 67.2557 19.772 67.2557 19.9759C67.2557 20.2307 67.3577 20.4345 67.5108 20.5874C67.6631 20.7403 67.9182 20.8422 68.1216 20.8422C68.2236 20.8422 68.325 20.8422 68.427 20.7913C68.529 20.7403 68.58 20.6893 68.6821 20.5874V20.8932H69.0385V20.0268ZM69.6493 20.6384H69.7003C69.7003 20.6384 69.7513 20.6384 69.7513 20.6893L69.8024 20.7403V20.7913V20.8422C69.8024 20.8422 69.8024 20.8932 69.7513 20.8932L69.7003 20.9442H69.6493C69.5983 20.9442 69.5983 20.9442 69.5473 20.8932C69.4963 20.8932 69.4963 20.8422 69.4963 20.7913V20.7403V20.6893C69.4963 20.6893 69.4963 20.6384 69.5473 20.6384L69.5983 20.5874C69.5983 20.6384 69.5983 20.6384 69.6493 20.6384ZM69.6493 20.9442C69.7003 20.9442 69.7003 20.9442 69.7003 20.9442C69.7003 20.9442 69.7003 20.9442 69.7513 20.8932V20.8422V20.7913C69.7513 20.7913 69.7513 20.7403 69.7003 20.7403L69.6493 20.6893H69.5983C69.5983 20.6893 69.5983 20.6893 69.5473 20.6893C69.5473 20.6893 69.5473 20.6893 69.4963 20.7403V20.7913V20.8422C69.4963 20.8422 69.4963 20.8932 69.5473 20.8932C69.5473 20.8932 69.5983 20.8932 69.5983 20.9442C69.5983 20.9442 69.5983 20.9442 69.6493 20.9442ZM69.6493 20.7403C69.7003 20.7403 69.7003 20.7403 69.7003 20.7403C69.7003 20.7403 69.7003 20.7403 69.7003 20.7913C69.7003 20.7913 69.7003 20.7913 69.7003 20.8422C69.7003 20.8422 69.7003 20.8422 69.6493 20.8422L69.7003 20.8932H69.6493L69.5983 20.8422V20.8932H69.5473V20.7403H69.6493ZM69.5983 20.7403L69.6493 20.7913V20.7403H69.5983ZM67.6631 20.0268C67.6631 19.9759 67.6631 19.874 67.7142 19.823C67.7652 19.772 67.7652 19.7211 67.8162 19.6701C67.8672 19.6192 67.9182 19.5682 67.9686 19.5682C68.0196 19.5682 68.1216 19.5172 68.1726 19.5172C68.2236 19.5172 68.325 19.5172 68.376 19.5682C68.427 19.6192 68.478 19.6192 68.529 19.6701C68.58 19.7211 68.6311 19.772 68.6311 19.823C68.6311 19.874 68.6821 19.9759 68.6821 20.0268C68.6821 20.1797 68.6311 20.2817 68.529 20.3836C68.427 20.4855 68.325 20.5365 68.1726 20.5365C68.1216 20.5365 68.0196 20.5365 67.9686 20.4855C67.9182 20.4855 67.8672 20.4345 67.8162 20.3836C67.7652 20.3326 67.7142 20.2817 67.7142 20.2307C67.6631 20.1797 67.6631 20.0778 67.6631 20.0268C67.6631 20.0778 67.6631 20.0778 67.6631 20.0268ZM55.1365 20.0268V19.1605H54.78V19.3643C54.7291 19.2624 54.6272 19.2115 54.5254 19.1605C54.4236 19.1095 54.3217 19.1095 54.2198 19.1095C53.9652 19.1095 53.7616 19.2115 53.6088 19.3643C53.456 19.5172 53.3541 19.772 53.3541 19.9759C53.3541 20.2307 53.456 20.4345 53.6088 20.5874C53.7616 20.7403 54.0162 20.8422 54.2198 20.8422C54.3217 20.8422 54.4236 20.8422 54.5254 20.7913C54.6272 20.7403 54.6782 20.6893 54.78 20.5874V20.8932H55.1365V20.0268ZM53.7616 20.0268C53.7616 19.874 53.8125 19.772 53.9143 19.6701C54.0162 19.5682 54.169 19.5172 54.2708 19.5682C54.4236 19.5682 54.5254 19.6192 54.6272 19.7211C54.7291 19.823 54.78 19.9759 54.7291 20.0778C54.7291 20.2307 54.6782 20.3326 54.5763 20.4345C54.4744 20.5365 54.3726 20.5874 54.2198 20.5874C54.169 20.5874 54.0671 20.5874 54.0162 20.5365C53.9652 20.5365 53.9143 20.4855 53.8634 20.4345C53.8125 20.3836 53.7616 20.3326 53.7616 20.2817C53.7106 20.2307 53.7106 20.1288 53.7106 20.0778C53.7616 20.0778 53.7616 20.0778 53.7616 20.0268Z" fill="#231F20"/>
<path d="M62.4681 6.2168H56.8667V16.3072H62.4681V6.2168Z" fill="#FF5F00"/>
<path d="M57.2219 11.2628C57.2219 10.2946 57.4256 9.32635 57.8839 8.46C58.2913 7.59365 58.9533 6.82919 59.7171 6.21767C58.7496 5.45325 57.6293 4.99459 56.4581 4.89267C55.2869 4.79075 54.0648 4.99459 52.9953 5.50421C51.926 6.01382 51.0094 6.82919 50.3474 7.84844C49.7363 8.8677 49.3799 10.0398 49.3799 11.2628C49.3799 12.4859 49.7363 13.658 50.3474 14.6773C50.9585 15.6965 51.8751 16.5119 52.9953 17.0215C54.0648 17.5311 55.2869 17.735 56.4581 17.633C57.6293 17.4802 58.8005 17.0215 59.7171 16.308C58.9533 15.6965 58.2913 14.9321 57.8839 14.0657C57.4256 13.1994 57.2219 12.2311 57.2219 11.2628Z" fill="#EB001B"/>
<path d="M70.0044 11.2618C70.0044 12.4848 69.648 13.6569 69.0365 14.6762C68.3747 15.6954 67.5088 16.5108 66.3888 17.0204C65.3194 17.53 64.0973 17.7339 62.926 17.6319C61.7549 17.4791 60.5836 17.0204 59.667 16.3069C60.991 15.2368 61.8567 13.7079 62.0603 12.0262C62.2641 10.3444 61.8057 8.61177 60.7364 7.28677C60.4309 6.87907 60.0744 6.52232 59.667 6.21655C60.329 5.70693 61.0928 5.29924 61.9076 5.0954C62.7224 4.89155 63.5881 4.78963 64.4028 4.89155C65.2176 4.99347 66.0323 5.24828 66.7962 5.65597C67.5088 6.06366 68.1713 6.62424 68.6801 7.28677C69.546 8.40792 70.0044 9.83481 70.0044 11.2618Z" fill="#F79E1B"/>
<path d="M69.3924 15.0334H69.4944V14.9824H69.291V15.0334H69.3924ZM69.7998 15.2372V14.9824H69.7488L69.6985 15.1353L69.6474 14.9824H69.5964V15.2372H69.6474V15.0844L69.6985 15.2372H69.7488L69.7998 15.0844V15.2372Z" fill="#F79E1B"/>
<path d="M116.907 0H85.2806C84.666 0 84.0521 0.259295 83.5914 0.674168C83.1307 1.08904 82.875 1.71135 82.875 2.33366V24.1664C82.875 24.7886 83.1307 25.4109 83.5914 25.8258C84.0521 26.2407 84.6147 26.5 85.2806 26.5H116.907C117.521 26.5 118.135 26.2407 118.596 25.8258C119.057 25.4109 119.312 24.7886 119.312 24.1664V2.33366C119.312 1.71135 119.057 1.08904 118.596 0.674168C118.084 0.259295 117.521 0 116.907 0Z" fill="#009CDE" fill-opacity="0.15"/>
<path d="M92.5189 10.3191C92.1492 10.0649 91.6668 9.9375 91.0716 9.9375H88.7673C88.5849 9.9375 88.484 10.0288 88.4649 10.211L87.5288 16.0868C87.5191 16.1445 87.5335 16.1973 87.572 16.2453C87.6103 16.2934 87.6584 16.3173 87.716 16.3173H88.8105C89.0025 16.3173 89.108 16.2263 89.1274 16.0437L89.3865 14.4596C89.396 14.3828 89.4298 14.3204 89.4874 14.2723C89.545 14.2244 89.617 14.1929 89.7034 14.1786C89.7898 14.1643 89.8713 14.1571 89.9482 14.1571C90.025 14.1571 90.1161 14.162 90.2219 14.1715C90.3274 14.1811 90.3947 14.1858 90.4235 14.1858C91.2491 14.1858 91.8972 13.9532 92.3677 13.4874C92.838 13.0218 93.0735 12.3762 93.0735 11.5503C93.0735 10.9839 92.8885 10.5735 92.5189 10.3189V10.3191ZM91.3308 12.0834C91.2827 12.4195 91.158 12.6402 90.9564 12.7458C90.7548 12.8516 90.4667 12.9042 90.0924 12.9042L89.6171 12.9186L89.862 11.3776C89.8811 11.2721 89.9434 11.2193 90.0491 11.2193H90.3228C90.7067 11.2193 90.9853 11.2746 91.1581 11.3848C91.3308 11.4953 91.3885 11.7283 91.3308 12.0834Z" fill="#003087"/>
<path d="M116.836 9.9375H115.77C115.664 9.9375 115.602 9.99032 115.583 10.0959L114.647 16.087L114.632 16.1158C114.632 16.1641 114.652 16.2094 114.69 16.2527C114.728 16.2958 114.776 16.3174 114.834 16.3174H115.785C115.967 16.3174 116.068 16.2264 116.087 16.0438L117.023 10.1535V10.1392C117.023 10.0049 116.96 9.93763 116.836 9.93763V9.9375Z" fill="#009CDE"/>
<path d="M103.961 12.2563C103.961 12.2084 103.942 12.1627 103.903 12.1196C103.865 12.0764 103.822 12.0547 103.774 12.0547H102.665C102.559 12.0547 102.473 12.1029 102.406 12.1987L100.879 14.4454L100.245 12.2852C100.197 12.1316 100.092 12.0547 99.9285 12.0547H98.8483C98.8001 12.0547 98.7569 12.0763 98.7188 12.1196C98.6802 12.1627 98.6611 12.2084 98.6611 12.2563C98.6611 12.2757 98.7548 12.5588 98.9419 13.106C99.1291 13.6534 99.3308 14.2438 99.5468 14.8775C99.7629 15.5112 99.8756 15.8473 99.8852 15.8855C99.0979 16.9609 98.7044 17.537 98.7044 17.6137C98.7044 17.7387 98.7667 17.801 98.8916 17.801H100C100.106 17.801 100.192 17.7531 100.26 17.657L103.932 12.357C103.951 12.338 103.961 12.3045 103.961 12.2563V12.2563Z" fill="#003087"/>
<path d="M92.5189 10.3191C92.1492 10.0649 91.6668 9.9375 91.0716 9.9375H88.7673C88.5849 9.9375 88.484 10.0288 88.4649 10.211L87.5288 16.0868C87.5191 16.1445 87.5335 16.1973 87.572 16.2453C87.6103 16.2934 87.6584 16.3173 87.716 16.3173H88.8105C89.0025 16.3173 89.108 16.2263 89.1274 16.0437L89.3865 14.4596C89.396 14.3828 89.4298 14.3204 89.4874 14.2723C89.545 14.2244 89.617 14.1929 89.7034 14.1786C89.7898 14.1643 89.8713 14.1571 89.9482 14.1571C90.025 14.1571 90.1161 14.162 90.2219 14.1715C90.3274 14.1811 90.3947 14.1858 90.4235 14.1858C91.2491 14.1858 91.8972 13.9532 92.3677 13.4874C92.838 13.0218 93.0735 12.3762 93.0735 11.5503C93.0735 10.9839 92.8885 10.5735 92.5189 10.3189V10.3191ZM91.3308 12.0834C91.2827 12.4195 91.158 12.6402 90.9564 12.7458C90.7548 12.8516 90.4667 12.9042 90.0924 12.9042L89.6171 12.9186L89.862 11.3776C89.8811 11.2721 89.9434 11.2193 90.0491 11.2193H90.3228C90.7067 11.2193 90.9853 11.2746 91.1581 11.3848C91.3308 11.4953 91.3885 11.7283 91.3308 12.0834Z" fill="#003087"/>
<path d="M116.836 9.9375H115.77C115.664 9.9375 115.602 9.99032 115.583 10.0959L114.647 16.087L114.632 16.1158C114.632 16.1641 114.652 16.2094 114.69 16.2527C114.728 16.2958 114.776 16.3174 114.834 16.3174H115.785C115.967 16.3174 116.068 16.2264 116.087 16.0438L117.023 10.1535V10.1392C117.023 10.0049 116.96 9.93763 116.836 9.93763V9.9375Z" fill="#009CDE"/>
<path d="M103.961 12.2563C103.961 12.2084 103.942 12.1627 103.903 12.1196C103.865 12.0764 103.822 12.0547 103.774 12.0547H102.665C102.559 12.0547 102.473 12.1029 102.406 12.1987L100.879 14.4454L100.245 12.2852C100.197 12.1316 100.092 12.0547 99.9285 12.0547H98.8483C98.8001 12.0547 98.7569 12.0763 98.7188 12.1196C98.6802 12.1627 98.6611 12.2084 98.6611 12.2563C98.6611 12.2757 98.7548 12.5588 98.9419 13.106C99.1291 13.6534 99.3308 14.2438 99.5468 14.8775C99.7629 15.5112 99.8756 15.8473 99.8852 15.8855C99.0979 16.9609 98.7044 17.537 98.7044 17.6137C98.7044 17.7387 98.7667 17.801 98.8916 17.801H100C100.106 17.801 100.192 17.7531 100.26 17.657L103.932 12.357C103.951 12.338 103.961 12.3045 103.961 12.2563V12.2563Z" fill="#003087"/>
<path d="M114.287 12.054H113.192C113.058 12.054 112.976 12.2124 112.948 12.5293C112.698 12.1454 112.242 11.9531 111.579 11.9531C110.888 11.9531 110.3 12.2124 109.815 12.7309C109.33 13.2494 109.088 13.8591 109.088 14.5599C109.088 15.1265 109.253 15.5777 109.585 15.9136C109.916 16.2499 110.36 16.4177 110.917 16.4177C111.195 16.4177 111.479 16.36 111.767 16.2449C112.055 16.1297 112.28 15.9761 112.444 15.784C112.444 15.7937 112.434 15.8368 112.415 15.9135C112.395 15.9905 112.386 16.0482 112.386 16.0864C112.386 16.2402 112.448 16.3168 112.573 16.3168H113.567C113.749 16.3168 113.855 16.2257 113.884 16.0431L114.474 12.2843C114.484 12.2267 114.469 12.174 114.431 12.1259C114.392 12.0781 114.344 12.054 114.287 12.054ZM112.407 14.8911C112.163 15.1312 111.867 15.2512 111.522 15.2512C111.243 15.2512 111.018 15.1745 110.845 15.0208C110.672 14.8675 110.586 14.6562 110.586 14.3871C110.586 14.0321 110.706 13.7319 110.946 13.487C111.185 13.2422 111.483 13.1198 111.839 13.1198C112.107 13.1198 112.33 13.199 112.508 13.3574C112.686 13.5158 112.775 13.7343 112.775 14.0127C112.775 14.3583 112.652 14.6512 112.407 14.8911Z" fill="#009CDE"/>
<path d="M97.9266 12.054H96.8321C96.6975 12.054 96.616 12.2124 96.5872 12.5293C96.328 12.1454 95.8719 11.9531 95.219 11.9531C94.5277 11.9531 93.9396 12.2124 93.4548 12.7309C92.9699 13.2494 92.7275 13.8591 92.7275 14.5599C92.7275 15.1265 92.8932 15.5777 93.2244 15.9136C93.5557 16.2499 93.9996 16.4177 94.5566 16.4177C94.8253 16.4177 95.1039 16.36 95.3918 16.2449C95.6799 16.1297 95.9103 15.9761 96.0831 15.784C96.0446 15.8992 96.0255 16 96.0255 16.0864C96.0255 16.2402 96.0879 16.3168 96.2127 16.3168H97.2064C97.3887 16.3168 97.4944 16.2257 97.5233 16.0431L98.1137 12.2843C98.1232 12.2267 98.1088 12.174 98.0705 12.1259C98.0321 12.0781 97.9842 12.054 97.9266 12.054ZM96.0472 14.8983C95.8023 15.1338 95.5021 15.2512 95.1471 15.2512C94.8685 15.2512 94.6453 15.1745 94.4774 15.0208C94.3093 14.8675 94.2253 14.6562 94.2253 14.3871C94.2253 14.0321 94.3453 13.7319 94.5854 13.487C94.8253 13.2422 95.1229 13.1198 95.4783 13.1198C95.747 13.1198 95.9702 13.199 96.148 13.3574C96.3255 13.5158 96.4144 13.7343 96.4144 14.0128C96.4144 14.368 96.292 14.6633 96.0472 14.8983Z" fill="#003087"/>
<path d="M108.879 10.3191C108.51 10.0649 108.027 9.9375 107.432 9.9375H105.142C104.95 9.9375 104.844 10.0288 104.825 10.211L103.889 16.0868C103.879 16.1446 103.894 16.1973 103.932 16.2453C103.97 16.2934 104.019 16.3173 104.076 16.3173H105.257C105.372 16.3173 105.449 16.255 105.488 16.1301L105.747 14.4596C105.756 14.3828 105.79 14.3204 105.848 14.2723C105.905 14.2244 105.977 14.193 106.064 14.1786C106.15 14.1643 106.232 14.1571 106.309 14.1571C106.385 14.1571 106.477 14.162 106.582 14.1715C106.688 14.1811 106.755 14.1858 106.784 14.1858C107.61 14.1858 108.258 13.9532 108.728 13.4874C109.199 13.0218 109.434 12.3762 109.434 11.5503C109.434 10.9839 109.249 10.5735 108.879 10.3189V10.3191ZM107.403 12.6882C107.192 12.8322 106.875 12.9042 106.453 12.9042L105.992 12.9186L106.237 11.3776C106.256 11.2721 106.318 11.2193 106.424 11.2193H106.683C106.894 11.2193 107.062 11.2289 107.187 11.248C107.312 11.2674 107.432 11.3272 107.547 11.428C107.662 11.5289 107.72 11.6753 107.72 11.8673C107.72 12.2705 107.614 12.5441 107.403 12.6882Z" fill="#009CDE"/>
<path d="M124.312 3.3125C124.312 1.48306 125.796 0 127.625 0H154.125C155.954 0 157.438 1.48306 157.438 3.3125V23.1875C157.438 25.0169 155.954 26.5 154.125 26.5H127.625C125.796 26.5 124.312 25.0169 124.312 23.1875V3.3125Z" fill="#006FCF"/>
<path fill-rule="evenodd" clip-rule="evenodd" d="M130.731 18.55V13.6752H136.24L136.831 14.3971L137.442 13.6752H157.438V18.2138C157.438 18.2138 156.915 18.5451 156.31 18.55H145.238L144.571 17.7816V18.55H142.388V17.2383C142.388 17.2383 142.089 17.4214 141.444 17.4214H140.701V18.55H137.395L136.805 17.8126L136.205 18.55H130.731ZM124.312 10.0011L125.552 7.2875H127.695L128.399 8.80755V7.2875H131.063L131.482 8.38611L131.888 7.2875H143.849V7.83981C143.849 7.83981 144.478 7.2875 145.512 7.2875L149.393 7.30024L150.084 8.80039V7.2875H152.314L152.927 8.14919V7.2875H155.178V12.1623H152.927L152.339 11.2978V12.1623H149.063L148.734 11.3939H147.853L147.529 12.1623H145.307C144.418 12.1623 143.849 11.6213 143.849 11.6213V12.1623H140.5L139.835 11.3939V12.1623H127.378L127.049 11.3939H126.171L125.844 12.1623H124.312V10.0011ZM124.319 11.5386L125.991 7.88847H127.258L128.928 11.5386H127.816L127.509 10.8077H125.716L125.407 11.5386H124.319ZM127.156 10.0152L126.609 8.73793L126.061 10.0152H127.156ZM129.043 11.538V7.88782L130.59 7.89327L131.49 10.2466L132.368 7.88782H133.902V11.538H132.93V8.8484L131.9 11.538H131.048L130.015 8.8484V11.538H129.043ZM134.567 11.538V7.88782H137.738V8.70431H135.549V9.32869H137.687V10.0971H135.549V10.7455H137.738V11.538H134.567ZM138.3 11.5386V7.88847H140.463C141.179 7.88847 141.821 8.30453 141.821 9.07265C141.821 9.72929 141.28 10.1522 140.755 10.1938L142.034 11.5386H140.846L139.681 10.2418H139.272V11.5386H138.3ZM140.383 8.70496H139.272V9.47337H140.397C140.592 9.47337 140.843 9.33165 140.843 9.08916C140.843 8.90067 140.649 8.70496 140.383 8.70496ZM143.21 11.538H142.218V7.88782H143.21V11.538ZM145.563 11.538H145.349C144.312 11.538 143.683 10.7713 143.683 9.72793C143.683 8.65872 144.305 7.88782 145.614 7.88782H146.688V8.75238H145.575C145.043 8.75238 144.668 9.14167 144.668 9.73693C144.668 10.4438 145.097 10.7407 145.716 10.7407H145.972L145.563 11.538ZM146.005 11.5386L147.677 7.88847H148.945L150.615 11.5386H149.502L149.196 10.8077H147.402L147.094 11.5386H146.005ZM148.842 10.0152L148.296 8.73793L147.748 10.0152H148.842ZM150.728 11.538V7.88782H151.964L153.541 10.1812V7.88782H154.513V11.538H153.317L151.7 9.18459V11.538H150.728ZM131.396 17.9257V14.2755H134.567V15.092H132.378V15.7164H134.516V16.4848H132.378V17.1332H134.567V17.9257H131.396ZM146.933 17.9257V14.2755H150.104V15.092H147.915V15.7164H150.043V16.4848H147.915V17.1332H150.104V17.9257H146.933ZM134.69 17.9257L136.234 16.1231L134.653 14.2755H135.877L136.819 15.4177L137.763 14.2755H138.94L137.38 16.1006L138.926 17.9257H137.702L136.788 16.8015L135.897 17.9257H134.69ZM139.042 17.9263V14.2762H141.188C142.069 14.2762 142.584 14.8092 142.584 15.5039C142.584 16.3424 141.928 16.7736 141.062 16.7736H140.039V17.9263H139.042ZM141.116 15.1016H140.039V15.9421H141.113C141.397 15.9421 141.596 15.7655 141.596 15.5219C141.596 15.2626 141.396 15.1016 141.116 15.1016ZM143.006 17.9257V14.2755H145.168C145.884 14.2755 146.526 14.6916 146.526 15.4597C146.526 16.1164 145.985 16.5393 145.46 16.5809L146.739 17.9257H145.552L144.386 16.6289H143.977V17.9257H143.006ZM145.088 15.092H143.977V15.8604H145.102C145.297 15.8604 145.548 15.7188 145.548 15.4762C145.548 15.2877 145.355 15.092 145.088 15.092ZM150.554 17.9257V17.1332H152.499C152.787 17.1332 152.911 16.9872 152.911 16.827C152.911 16.6736 152.787 16.5184 152.499 16.5184H151.62C150.856 16.5184 150.431 16.0814 150.431 15.4252C150.431 14.8399 150.821 14.2755 151.956 14.2755H153.848L153.439 15.0968H151.802C151.489 15.0968 151.393 15.251 151.393 15.3982C151.393 15.5495 151.512 15.7164 151.751 15.7164H152.672C153.523 15.7164 153.893 16.17 153.893 16.764C153.893 17.4026 153.481 17.9257 152.625 17.9257H150.554ZM153.978 17.9257V17.1332H155.923C156.211 17.1332 156.336 16.9872 156.336 16.827C156.336 16.6736 156.211 16.5184 155.923 16.5184H155.044C154.28 16.5184 153.855 16.0814 153.855 15.4252C153.855 14.8399 154.245 14.2755 155.38 14.2755H157.272L156.863 15.0968H155.226C154.914 15.0968 154.817 15.251 154.817 15.3982C154.817 15.5495 154.936 15.7164 155.175 15.7164H156.096C156.947 15.7164 157.317 16.17 157.317 16.764C157.317 17.4026 156.905 17.9257 156.049 17.9257H153.978Z" fill="white"/>
<path d="M196.446 26.5H164.867C163.526 26.5 162.438 25.402 162.438 24.0487V2.45125C162.438 1.09796 163.526 0 164.867 0H196.446C197.787 0 198.875 1.09796 198.875 2.45125V24.0487C198.875 25.402 197.787 26.5 196.446 26.5ZM190.568 17.9132V19.0469C190.729 19.0693 190.914 19.0826 191.103 19.0826H191.119C192.53 19.0826 193.199 18.529 193.776 16.8898L196.32 9.68923H194.849L193.142 15.2515H193.112L191.405 9.68923H189.891L192.346 16.5456L192.214 16.9623C192.125 17.523 191.648 17.9459 191.075 17.9459C191.047 17.9459 191.019 17.9448 190.99 17.9428H190.994C190.881 17.9377 190.658 17.9244 190.569 17.9132H190.568ZM168.22 8.88849H168.194C167.297 8.91402 166.523 9.41857 166.111 10.156L166.105 10.1682C165.25 11.6512 165.794 13.9207 166.739 15.3026C167.182 15.9563 167.668 16.5956 168.309 16.5956H168.343C168.612 16.5783 168.86 16.5078 169.083 16.3944L169.072 16.3995C169.342 16.2627 169.66 16.182 169.996 16.1789C170.321 16.181 170.629 16.2606 170.899 16.3995L170.888 16.3944C171.106 16.5088 171.362 16.5783 171.634 16.5844H171.636H171.663C172.377 16.5711 172.824 15.9103 173.22 15.3281C173.502 14.9155 173.736 14.4406 173.9 13.933L173.911 13.8941V13.8839L173.893 13.8758C173.104 13.5132 172.564 12.7267 172.559 11.8116V11.8106C172.567 10.9976 172.991 10.2867 173.627 9.88329L173.636 9.87818L173.654 9.86592C173.24 9.26537 172.567 8.87112 171.802 8.8507H171.799C171.763 8.8507 171.727 8.8507 171.692 8.8507C171.24 8.87521 170.819 8.98449 170.438 9.16425L170.459 9.15506C170.285 9.24085 170.082 9.30316 169.869 9.32971L169.86 9.33073C169.629 9.3052 169.418 9.24187 169.226 9.14587L169.237 9.15097C168.941 9.00594 168.593 8.91096 168.228 8.88644H168.22V8.88849ZM186.553 10.7433C187.444 10.7433 187.936 11.1641 187.936 11.927V12.4469L186.128 12.5551C184.433 12.6583 183.537 13.3518 183.537 14.5601C183.549 15.6917 184.46 16.6038 185.583 16.6038C185.668 16.6038 185.751 16.5987 185.833 16.5885L185.823 16.5895C185.843 16.5905 185.866 16.5905 185.889 16.5905C186.769 16.5905 187.538 16.1125 187.955 15.3986L187.961 15.3874H187.991V16.5129H189.332V11.829C189.332 10.4706 188.259 9.59424 186.597 9.59424C185.064 9.59424 183.924 10.4808 183.879 11.7013H185.185C185.33 11.1406 185.827 10.7341 186.418 10.7341C186.466 10.7341 186.514 10.7371 186.56 10.7422L186.554 10.7412L186.553 10.7433ZM176.608 7.10112V16.5139H178.056V13.2946H180.057C180.104 13.2977 180.159 13.2987 180.214 13.2987C181.852 13.2987 183.179 11.9597 183.179 10.3071C183.179 10.2653 183.178 10.2244 183.177 10.1836V10.1897C183.179 10.1509 183.18 10.1059 183.18 10.06C183.18 8.42377 181.866 7.09805 180.244 7.09805C180.196 7.09805 180.147 7.09907 180.1 7.10112H180.107H176.608ZM171.803 6.38208C171.202 6.44132 170.677 6.72934 170.308 7.15831L170.306 7.16138C169.969 7.54234 169.763 8.04791 169.763 8.60149C169.763 8.64949 169.765 8.69749 169.769 8.74448V8.73835C169.803 8.73835 169.839 8.74243 169.88 8.74243C170.447 8.70975 170.944 8.43603 171.275 8.02034L171.278 8.01625C171.609 7.62099 171.81 7.10622 171.81 6.54244C171.81 6.48626 171.808 6.43009 171.804 6.37391V6.38106L171.803 6.38208ZM186.212 15.4732C185.445 15.4732 184.948 15.1004 184.948 14.5243C184.948 13.9299 185.423 13.5877 186.324 13.5336L187.934 13.4315V13.9636C187.898 14.8093 187.21 15.4803 186.367 15.4803C186.312 15.4803 186.259 15.4772 186.205 15.4721L186.212 15.4732ZM179.716 12.072H178.052V8.33287H179.722C179.793 8.32266 179.875 8.31653 179.959 8.31653C180.921 8.31653 181.702 9.10399 181.702 10.0753C181.702 10.1182 181.7 10.1621 181.697 10.204V10.1979C181.7 10.2346 181.701 10.2786 181.701 10.3225C181.701 11.2968 180.917 12.0874 179.952 12.0874C179.869 12.0874 179.786 12.0812 179.706 12.07L179.715 12.071L179.716 12.072Z" fill="black"/>
<path d="M220.885 12.0862V9.03127L222.841 9.03033C223.268 9.01625 223.685 9.18237 223.996 9.4949C224.297 9.77365 224.464 10.1603 224.464 10.5658C224.464 10.9665 224.298 11.3532 223.996 11.6366C223.694 11.9351 223.272 12.1012 222.841 12.0862H220.885Z" fill="black"/>
<path d="M227.028 15.4396C226.814 15.2678 226.69 15.0041 226.694 14.7207C226.694 14.3988 226.834 14.1331 227.107 13.9135C227.38 13.6986 227.719 13.5907 228.132 13.5907C228.692 13.5907 229.129 13.7277 229.444 14.0018C229.444 14.4616 229.262 14.9018 228.943 15.2143C228.641 15.5419 228.233 15.7277 227.811 15.7277C227.529 15.7333 227.25 15.6301 227.028 15.4396Z" fill="black"/>
<path fill-rule="evenodd" clip-rule="evenodd" d="M206.525 0C205.061 0 203.875 1.18645 203.875 2.65V23.85C203.875 25.3136 205.061 26.5 206.525 26.5H237.663C239.126 26.5 240.312 25.3136 240.312 23.85V2.65C240.312 1.18644 239.126 0 237.663 0H206.525ZM232.619 19.2125L236.338 10.4531L235.122 10.4522L233.407 14.8173H233.384L231.612 10.4522H230.403L232.851 16.1472L231.469 19.2125H232.619ZM220.889 16.7104V13.1618H222.813C223.61 13.1618 224.278 12.9168 224.816 12.4184C225.353 11.9689 225.664 11.28 225.655 10.5611C225.664 9.85248 225.363 9.18237 224.816 8.70841C224.264 8.20066 223.55 7.9313 222.813 7.95101H219.72V16.7104H220.889ZM229.758 11.1082C229.327 10.6728 228.738 10.4531 227.996 10.4531L227.994 10.4513C227.038 10.4513 226.316 10.837 225.829 11.6047L226.714 12.211C227.044 11.693 227.489 11.4339 228.05 11.4339C228.411 11.4292 228.759 11.5756 229.024 11.8347C229.288 12.0843 229.441 12.441 229.437 12.8126V13.067C229.052 12.8276 228.561 12.7056 227.962 12.7056C227.263 12.7056 226.702 12.8868 226.284 13.2434C225.863 13.6057 225.654 14.089 225.654 14.6953C225.645 15.2425 225.863 15.7709 226.252 16.1322C226.651 16.5189 227.143 16.7094 227.736 16.7094C228.427 16.7094 228.979 16.3725 229.397 15.7024H229.438V16.5189H230.403V12.8971C230.403 12.1397 230.189 11.5437 229.758 11.1082ZM215.938 9.25651C215.052 8.40057 213.893 7.93599 212.696 7.95101L212.69 7.95007C210.873 7.94069 209.204 9.00593 208.365 10.7075C207.678 12.1209 207.678 13.7925 208.365 15.205C209.204 16.9065 210.873 17.9718 212.696 17.9624C214.003 17.9624 215.102 17.5184 215.904 16.7554C216.817 15.8854 217.346 14.5949 217.346 13.0698C217.346 12.7282 217.318 12.3903 217.262 12.0533H212.696V13.9792H215.311C215.205 14.6052 214.853 15.1524 214.347 15.5043C213.912 15.8075 213.35 15.9783 212.696 15.9783C211.464 15.9736 210.374 15.1421 209.975 13.9154C209.771 13.2941 209.771 12.6193 209.975 11.9989C210.374 10.7722 211.464 9.94071 212.696 9.93601C213.383 9.921 214.05 10.1904 214.556 10.684L215.938 9.25651Z" fill="black"/>
</svg>
